<svg width="1140" height="342" xmlns="http://www.w3.org/2000/svg" fill="none">
 <defs>
  <clipPath id="clip0">
   <rect id="svg_1" fill="white" height="342" width="1140"/>
  </clipPath>
  <filter id="svg_5_blur">
   <feGaussianBlur in="SourceGraphic" stdDeviation="0"/>
  </filter>
  <linearGradient id="svg_128" x1="0" y1="0" x2="1" y2="0">
   <stop stop-color="#ffff6b" stop-opacity="0.97656" offset="0"/>
   <stop stop-color="#fffa8d" stop-opacity="0.99219" offset="1"/>
  </linearGradient>
 </defs>
 <g>
  <title>Layer 1</title>
  <path id="svg_3" fill="url(#svg_128)" d="m344,250c-147.2,-50 -295.5,25 -341.5,87.5l-58.5,72.5l0,-519l1219.5,0l17,394.5c-51.6,-70.8 -251,-77.293 -359.5,-35.5c-108.5,41.793 -329.8,50 -477,0z"/>
  <text font-weight="normal" font-style="normal" xml:space="preserve" text-anchor="start" font-family="'Rubik'" font-size="100" stroke-width="0" id="svg_5" y="150" x="280" fill="#191919" filter="url(#svg_5_blur)">hey, i'm Eray!</text>
  <path d="m357,298.5c1,0 3,0 4,0c2,0 3,0 5,0l1,0l2,0" id="svg_6" fill="none"/>
  <path d="m381,288.5c0,-1 1,-1 4,-1c6,0 10.79025,-0.99023 18,-2c13.86469,-1.9418 24,-1 32,-1c18,0 36,0 52,0c14,0 30,0 41,0c10,0 19,2 27,2l3,0l3,0l3,0" id="svg_7" fill="none"/>
  <path d="m585,297.5c1,0 1.58582,-0.41422 3,1c1.41418,1.41422 0.29291,2.29291 1,3c1.41418,1.41422 3.03064,1.91232 6,3c5.05658,1.85226 8.88855,3.19409 14,6c3.92029,2.15204 10,3 13,5l3,0l6,1" id="svg_8" fill="none"/>
  <path stroke="null" d="m606,309.5c-28.50761,0 -86.74602,-0.71021 -114.03043,-1c-98.37595,-1.04483 -150.88813,-1.29291 -171.04564,-2c-20.15751,-0.70709 28.50761,-1 57.01521,-1l85.52282,0l57.01521,0" id="svg_9" fill="none"/>
 </g>
</svg>