<?xml version="1.0" encoding="UTF-8"?>
<svg xmlns="http://www.w3.org/2000/svg" xmlns:xlink="http://www.w3.org/1999/xlink" width="24px" height="24px" viewBox="0 0 24 24" version="1.1">
<g id="surface1">
<path style="stroke:none;fill-rule:nonzero;fill:rgba(116,237,177,255);fill-opacity:1;" d="M 4.5 0 C 2.84375 0 1.5 1.34375 1.5 3 L 1.5 21 C 1.5 22.65625 2.84375 24 4.5 24 L 18 24 C 19.65625 24 21 22.65625 21 21 L 21 3 C 21 1.34375 19.65625 0 18 0 Z M 9.75 13.5 L 12.75 13.5 C 14.820312 13.5 16.5 15.179688 16.5 17.25 C 16.5 17.664062 16.164062 18 15.75 18 L 6.75 18 C 6.335938 18 6 17.664062 6 17.25 C 6 15.179688 7.679688 13.5 9.75 13.5 Z M 14.25 9 C 14.25 10.65625 12.90625 12 11.25 12 C 9.59375 12 8.25 10.65625 8.25 9 C 8.25 7.34375 9.59375 6 11.25 6 C 12.90625 6 14.25 7.34375 14.25 9 Z M 24 3.75 C 24 3.335938 23.664062 3 23.25 3 C 22.835938 3 22.5 3.335938 22.5 3.75 L 22.5 6.75 C 22.5 7.164062 22.835938 7.5 23.25 7.5 C 23.664062 7.5 24 7.164062 24 6.75 Z M 23.25 9 C 22.835938 9 22.5 9.335938 22.5 9.75 L 22.5 12.75 C 22.5 13.164062 22.835938 13.5 23.25 13.5 C 23.664062 13.5 24 13.164062 24 12.75 L 24 9.75 C 24 9.335938 23.664062 9 23.25 9 Z M 24 15.75 C 24 15.335938 23.664062 15 23.25 15 C 22.835938 15 22.5 15.335938 22.5 15.75 L 22.5 18.75 C 22.5 19.164062 22.835938 19.5 23.25 19.5 C 23.664062 19.5 24 19.164062 24 18.75 Z M 24 15.75 "/>
</g>
</svg>
